<?xml version="1.0" encoding="utf-8"?>
<!-- Generator: Adobe Illustrator 24.3.0, SVG Export Plug-In . SVG Version: 6.00 Build 0)  -->
<svg version="1.1" id="Layer_1" xmlns="http://www.w3.org/2000/svg" xmlns:xlink="http://www.w3.org/1999/xlink" x="0px" y="0px"
	 viewBox="0 0 116.87 116.02" style="enable-background:new 0 0 116.87 116.02;" xml:space="preserve">
<style type="text/css">
	.st0{fill:#3258A4;}
</style>
<g>
	<g>
		<g>
			<g>
				<path class="st0" d="M101.16,116.02c-4.2,0-8.15-1.64-11.12-4.61c-2.97-2.97-4.61-6.92-4.61-11.12c0-4.2,1.63-8.15,4.6-11.11
					c2.97-2.97,6.92-4.61,11.13-4.61c4.2,0,8.15,1.63,11.12,4.6c6.13,6.13,6.13,16.11,0,22.25
					C109.3,114.39,105.35,116.02,101.16,116.02z"/>
			</g>
			<g>
				<path class="st0" d="M15.73,32.18c-4.2,0-8.15-1.64-11.13-4.61C1.64,24.6,0,20.65,0,16.45c0-4.2,1.63-8.15,4.6-11.11
					c2.97-2.97,6.93-4.61,11.13-4.61c4.2,0,8.15,1.63,11.11,4.6c2.97,2.97,4.61,6.92,4.61,11.12c0,4.2-1.64,8.15-4.61,11.12
					C23.88,30.54,19.93,32.18,15.73,32.18z"/>
			</g>
			<path class="st0" d="M100.45,31.72c-4.2,0-8.15-1.64-11.12-4.61C83.2,20.98,83.2,11,89.32,4.87c2.97-2.97,6.92-4.61,11.13-4.61
				c4.2,0,8.15,1.64,11.12,4.61c6.13,6.13,6.13,16.11,0,22.25C108.6,30.08,104.65,31.72,100.45,31.72z"/>
			<g>
				<path class="st0" d="M16.14,116.02c-4.2,0-8.15-1.64-11.13-4.61c-2.97-2.97-4.6-6.92-4.6-11.12c0-4.2,1.64-8.15,4.61-11.12
					c0.62-0.63,1.32-1.2,2.21-1.8c0.27-0.19,0.52-0.34,0.77-0.49c0.58-0.33,1.16-0.64,1.7-0.89c0.29-0.13,0.6-0.27,0.92-0.39
					c0.57-0.21,1.2-0.4,1.92-0.57c0.14-0.04,0.27-0.07,0.4-0.11c0.08-0.02,0.16-0.05,0.24-0.07l3.5-0.24
					c0.44,0.02,0.92,0.08,1.43,0.14l0.2,0.03c0.12,0.01,0.28,0.03,0.44,0.04l0.14,0.01l0.16,0.03h0.14
					c0.26,0.01,0.51,0.01,0.76,0.01c6.03,0,11.99-2.57,16.34-7.05c4.33-4.46,6.72-10.46,6.55-16.46l0-0.18l-0.03-0.19
					c-0.03-0.17-0.04-0.34-0.05-0.51c-0.01-0.2-0.03-0.4-0.06-0.6l-0.04-0.35c-0.03-0.3-0.07-0.6-0.09-0.9l0.27-3.51
					c0.02-0.09,0.05-0.17,0.07-0.25l0.06-0.22c0.16-0.67,0.33-1.33,0.59-1.98c0.13-0.37,0.25-0.64,0.39-0.92
					c0.28-0.61,0.57-1.17,0.91-1.74c0.15-0.25,0.29-0.5,0.46-0.74c0.64-0.93,1.21-1.63,1.81-2.23c2.97-2.97,6.92-4.6,11.13-4.6
					c4.2,0,8.15,1.63,11.13,4.6c6.12,6.13,6.12,16.11-0.01,22.24c-0.62,0.62-1.32,1.19-2.22,1.8c-0.26,0.18-0.51,0.33-0.76,0.47
					c-0.57,0.34-1.14,0.64-1.7,0.9c-0.31,0.14-0.61,0.28-0.91,0.39c-0.6,0.22-1.24,0.41-1.91,0.57l-0.38,0.11
					c-0.09,0.02-0.17,0.05-0.25,0.07l-3.53,0.25c-0.41-0.02-0.85-0.07-1.31-0.13l-0.31-0.04c-0.11-0.02-0.27-0.03-0.44-0.04
					l-0.12-0.01l-0.18-0.03h-0.14c-0.26-0.01-0.51-0.01-0.77-0.01c-6.03,0-11.99,2.57-16.34,7.04c-4.34,4.46-6.72,10.46-6.55,16.47
					l0,0.18l0.03,0.18c0.03,0.17,0.04,0.34,0.05,0.51c0.01,0.2,0.03,0.4,0.06,0.6c0.01,0.12,0.03,0.34,0.06,0.55
					c0.03,0.24,0.06,0.47,0.06,0.72v0.09l-0.25,3.37c-0.02,0.07-0.13,0.46-0.16,0.58c-0.17,0.73-0.36,1.37-0.58,1.95
					c-0.12,0.32-0.24,0.6-0.38,0.89c-0.27,0.6-0.57,1.17-0.91,1.75c-0.15,0.24-0.32,0.52-0.5,0.79c-0.58,0.85-1.16,1.56-1.79,2.19
					C24.29,114.39,20.34,116.02,16.14,116.02L16.14,116.02z"/>
			</g>
			<path class="st0" d="M58.61,116.02c-4.2,0-8.16-1.64-11.13-4.61c-2.97-2.97-4.6-6.92-4.61-11.12c0-4.2,1.63-8.14,4.6-11.11
				c0.61-0.61,1.29-1.17,2.23-1.82c0.23-0.16,0.48-0.31,0.75-0.46c0.58-0.35,1.13-0.64,1.71-0.9c0.31-0.14,0.61-0.28,0.91-0.39
				c0.58-0.21,1.22-0.4,1.89-0.55c0,0,0.55-0.16,0.62-0.18l3.56-0.26c0.42,0.02,0.87,0.08,1.35,0.14l0.26,0.03
				c0.17,0.02,0.32,0.03,0.47,0.03c0.06,0,0.12,0,0.17,0.01l0.11,0.01l0.15,0.01c0.26,0.01,0.52,0.01,0.78,0.01
				c6.02,0,11.97-2.57,16.31-7.04c4.33-4.46,6.72-10.46,6.55-16.46l-0.02-0.73l-0.07-0.08c0-0.02,0-0.05-0.01-0.08
				c-0.01-0.17-0.02-0.34-0.04-0.52l-0.06-0.5c-0.03-0.28-0.07-0.55-0.08-0.83l0.24-3.4c0.02-0.08,0.14-0.5,0.17-0.63
				c0.2-0.81,0.38-1.41,0.58-1.94c0.11-0.32,0.25-0.61,0.39-0.91c0.25-0.55,0.55-1.11,0.91-1.72l0.07-0.11
				c0.12-0.21,0.24-0.41,0.38-0.61c0.64-0.94,1.22-1.64,1.82-2.25c2.97-2.97,6.93-4.61,11.13-4.61c4.2,0,8.15,1.63,11.12,4.6
				c6.13,6.13,6.13,16.11,0,22.25c-0.59,0.59-1.3,1.16-2.23,1.8c-0.18,0.12-0.35,0.22-0.52,0.33l-0.28,0.17
				c-0.53,0.31-1.1,0.61-1.66,0.87c-0.31,0.14-0.61,0.28-0.92,0.39c-0.55,0.21-1.16,0.38-1.92,0.57c-0.15,0.04-0.28,0.08-0.4,0.11
				c-0.09,0.02-0.17,0.05-0.25,0.07l-3.5,0.24c-0.51-0.02-1.07-0.1-1.6-0.17c-0.18-0.02-0.32-0.03-0.46-0.04
				c-0.05,0-0.11,0-0.16-0.01l-0.3-0.03c-0.26-0.01-0.52-0.01-0.78-0.01c-6.03,0-11.97,2.57-16.32,7.04
				c-4.33,4.46-6.72,10.46-6.54,16.47l0,0.18l0.03,0.17c0.03,0.18,0.04,0.36,0.05,0.54c0.01,0.18,0.03,0.37,0.05,0.54
				c0.01,0.15,0.03,0.34,0.05,0.52c0.03,0.27,0.06,0.53,0.07,0.8l-0.26,3.45c-0.02,0.08-0.15,0.54-0.15,0.54
				c-0.17,0.73-0.36,1.37-0.58,1.97c-0.1,0.28-0.23,0.56-0.36,0.84l-0.04,0.1c-0.26,0.56-0.55,1.12-0.88,1.66
				c-0.16,0.27-0.32,0.53-0.49,0.78c-0.62,0.89-1.2,1.61-1.82,2.23C66.74,114.39,62.8,116.02,58.61,116.02L58.61,116.02z"/>
			<path class="st0" d="M16.15,73.57c-4.2,0-8.15-1.63-11.12-4.6c-2.97-2.97-4.61-6.92-4.61-11.13c0-4.2,1.63-8.14,4.6-11.11
				c0.61-0.61,1.32-1.18,2.23-1.81c0.24-0.16,0.51-0.32,0.77-0.48c0.54-0.32,1.1-0.62,1.69-0.89c0.3-0.14,0.61-0.28,0.93-0.39
				c0.58-0.21,1.22-0.4,1.88-0.55l0.4-0.11c0.07-0.02,0.14-0.05,0.22-0.06l3.56-0.26c0.46,0.02,0.96,0.09,1.49,0.16l0.11,0.01
				c0.18,0.02,0.32,0.03,0.47,0.03c0.05,0,0.1,0,0.15,0.01l0.15,0.03l0.14,0.01c0.26,0.01,0.52,0.01,0.78,0.01
				c6.02,0,11.97-2.56,16.31-7.04c4.33-4.46,6.72-10.46,6.54-16.47l0-0.17l-0.03-0.17c-0.04-0.19-0.04-0.38-0.05-0.58
				c-0.01-0.16-0.02-0.32-0.04-0.48l-0.05-0.48c-0.04-0.29-0.07-0.58-0.08-0.87l0.24-3.3l0.02-0.08v-0.07
				c0.02-0.08,0.15-0.51,0.15-0.51c0.2-0.85,0.38-1.46,0.58-2c0.11-0.3,0.25-0.59,0.39-0.9c0.26-0.56,0.56-1.14,0.9-1.72l0.05-0.09
				c0.14-0.23,0.27-0.45,0.42-0.68c0.62-0.9,1.2-1.61,1.79-2.21C50.1,1.64,54.06,0,58.26,0c4.2,0,8.15,1.63,11.12,4.6
				c6.13,6.13,6.12,16.11-0.01,22.24c-0.61,0.61-1.33,1.2-2.21,1.8c-0.24,0.17-0.45,0.29-0.66,0.42l-0.12,0.07
				c-0.58,0.34-1.15,0.64-1.68,0.89c-0.32,0.15-0.61,0.28-0.92,0.39c-0.59,0.22-1.22,0.4-1.92,0.57c-0.15,0.04-0.28,0.08-0.42,0.11
				c-0.08,0.02-0.16,0.05-0.25,0.07l-3.49,0.24c-0.44-0.02-0.91-0.08-1.41-0.14l-0.21-0.03c-0.16-0.02-0.31-0.03-0.45-0.04
				c-0.06,0-0.12,0-0.17-0.01l-0.12-0.01l-0.15-0.01c-0.26-0.01-0.52-0.02-0.78-0.02c-6.02,0-11.97,2.57-16.31,7.04
				c-4.33,4.46-6.72,10.47-6.55,16.47l0,0.18L31.59,55c0.04,0.18,0.04,0.36,0.06,0.54c0.01,0.18,0.03,0.37,0.05,0.55
				c0.01,0.15,0.04,0.33,0.06,0.52c0.03,0.26,0.06,0.52,0.07,0.78l-0.25,3.43c-0.02,0.09-0.05,0.18-0.08,0.27l-0.09,0.31
				c-0.17,0.77-0.36,1.41-0.57,1.97c-0.11,0.3-0.26,0.6-0.4,0.92c-0.26,0.56-0.55,1.12-0.89,1.69c-0.16,0.27-0.31,0.53-0.48,0.77
				c-0.65,0.94-1.2,1.62-1.81,2.22C24.28,71.93,20.34,73.57,16.15,73.57L16.15,73.57z"/>
		</g>
	</g>
</g>
</svg>
